<svg width="22" height="22" viewBox="0 0 22 22" xmlns="http://www.w3.org/2000/svg">
<path d="M8.05007 11.9227L13.0026 16.8665C13.0839 16.9485 13.1807 17.0136 13.2873 17.058C13.3939 17.1024 13.5083 17.1253 13.6238 17.1253C13.7393 17.1253 13.8537 17.1024 13.9603 17.058C14.0669 17.0136 14.1637 16.9485 14.2451 16.8665C14.408 16.7025 14.4995 16.4808 14.4995 16.2496C14.4995 16.0184 14.408 15.7967 14.2451 15.6327L9.91382 11.2577L14.2451 6.92647C14.408 6.76252 14.4995 6.54076 14.4995 6.30959C14.4995 6.07843 14.408 5.85666 14.2451 5.69272C14.164 5.61004 14.0674 5.54427 13.9608 5.49921C13.8541 5.45415 13.7396 5.4307 13.6238 5.43022C13.5081 5.4307 13.3935 5.45415 13.2869 5.49921C13.1802 5.54427 13.0836 5.61004 13.0026 5.69272L8.05007 10.6365C7.96125 10.7184 7.89037 10.8178 7.84189 10.9285C7.79341 11.0392 7.76838 11.1588 7.76838 11.2796C7.76838 11.4004 7.79341 11.52 7.84189 11.6306C7.89037 11.7413 7.96125 11.8408 8.05007 11.9227Z" fill="currentColor"/>
</svg>
