<svg width="36" height="36" viewBox="0 0 36 36" xmlns="http://www.w3.org/2000/svg">
<rect width="36" height="36" rx="18" fill="currentColor"/>
<path fill-rule="evenodd" clip-rule="evenodd" d="M10.1363 24.3511C9.7833 24.2467 9.46118 24.0609 9.19716 23.8094C8.93314 23.5579 8.73496 23.2481 8.61935 22.9061C7.95873 21.1386 7.76299 13.7582 9.0353 12.3013C9.45875 11.8273 10.0566 11.5355 10.6991 11.4892C14.1123 11.1309 24.6578 11.1787 25.869 11.6086C26.2096 11.7165 26.5208 11.8982 26.7793 12.1402C27.0378 12.3822 27.2368 12.6781 27.3615 13.0059C28.0833 14.8331 28.1077 21.473 27.2636 23.2285C27.0397 23.6855 26.6648 24.0557 26.1993 24.2795C24.927 24.9005 11.8246 24.8885 10.1363 24.3511ZM15.5559 20.8878L21.6728 17.7828L15.5559 14.6539V20.8878Z" fill="white"/>
</svg>
