<svg width="147" height="100" viewBox="0 0 147 100" fill="none" xmlns="http://www.w3.org/2000/svg">
<g id="guru-logo 2" clip-path="url(#clip0_226_202)">
<g id="Group">
<g id="Group_2">
<g id="Clip path group">
<mask id="mask0_226_202" style="mask-type:luminance" maskUnits="userSpaceOnUse" x="71" y="1" width="23" height="55">
<g id="SVGID_2_">
<path id="Vector" d="M73.1325 2.74001C72.9163 3.38726 72.5703 4.46601 72.181 6.192C71.4026 9.77345 70.3214 18.8781 72.4838 25.1348C74.6462 31.3916 77.2843 32.9018 79.2737 35.0593C81.2631 37.2168 87.4043 42.0496 87.5341 47.0981C87.6638 50.8953 85.9771 53.5706 84.5932 55.7281C91.2534 51.4563 93.6753 43.3441 93.2861 37.7346C92.6806 29.3635 86.5394 22.028 82.5173 16.85C78.8845 12.1898 74.5597 3.47356 73.738 1.74756C73.4785 2.13591 73.3487 2.35166 73.1325 2.74001Z" fill="white"/>
</g>
</mask>
<g mask="url(#mask0_226_202)">
<path id="Vector_2" d="M68.3319 55.685L70.3213 0.927734L95.6647 1.83388L93.6752 56.5912L68.3319 55.685Z" fill="url(#paint0_linear_226_202)"/>
</g>
</g>
</g>
<g id="Group_3">
<g id="Clip path group_2">
<mask id="mask1_226_202" style="mask-type:luminance" maskUnits="userSpaceOnUse" x="69" y="2" width="19" height="57">
<g id="SVGID_5_">
<path id="Vector_3" d="M72.7864 3.43039C72.354 4.55229 70.4078 9.21248 70.1051 15.8576C69.8023 22.5027 70.0186 26.343 72.4405 30.658C74.8623 35.0161 79.7061 38.5544 81.2631 40.9277C82.7767 43.2578 84.6797 45.8468 84.3769 49.083C84.0742 52.2761 82.3875 54.4768 78.8412 57.0658C77.9762 57.713 77.068 58.1877 76.1598 58.4897C79.5331 58.1877 82.3443 57.1952 84.6364 55.7281C86.0203 53.5706 87.6638 50.8953 87.5773 47.0981C87.4475 42.0496 81.3063 37.2168 79.3169 35.0593C77.3275 32.9018 74.6894 31.3916 72.527 25.1348C70.3646 18.8781 71.4458 9.77343 72.2242 6.19199C72.6135 4.46599 72.9162 3.34409 73.1757 2.73999C73.0027 2.95574 72.8729 3.21464 72.7864 3.43039Z" fill="white"/>
</g>
</mask>
<g mask="url(#mask1_226_202)">
<path id="Vector_4" d="M88.7017 2.78319L87.6638 58.835L68.8076 58.4898L69.8456 2.43799L88.7017 2.78319Z" fill="url(#paint1_linear_226_202)"/>
</g>
</g>
</g>
<g id="Group_4">
<g id="Clip path group_3">
<mask id="mask2_226_202" style="mask-type:luminance" maskUnits="userSpaceOnUse" x="53" y="2" width="23" height="56">
<g id="SVGID_8_">
<path id="Vector_5" d="M53.8439 38.2093C53.8871 45.8469 57.4335 53.7865 65.5641 57.0659C65.6073 57.0659 65.6506 57.0659 65.7371 57.0659C67.3373 57.0659 68.8509 56.8933 69.9321 56.4618C73.6947 54.8652 75.3381 51.9742 75.3381 47.4003C75.3381 42.6969 72.2243 39.2449 69.5429 35.3614C66.8615 31.5211 65.9533 27.3787 66.602 20.2158C67.2508 13.0529 70.5376 6.62356 71.0133 5.54481C71.3161 4.89756 71.8783 3.68936 72.4405 2.95581C64.5694 11.9742 53.8006 28.6732 53.8439 38.2093Z" fill="white"/>
</g>
</mask>
<g mask="url(#mask2_226_202)">
<path id="Vector_6" d="M53.8006 57.2816L53.2384 2.95586L75.2949 2.74011L75.8139 57.0659L53.8006 57.2816Z" fill="url(#paint2_linear_226_202)"/>
</g>
</g>
</g>
<g id="Group_5">
<g id="Clip path group_4">
<mask id="mask3_226_202" style="mask-type:luminance" maskUnits="userSpaceOnUse" x="65" y="1" width="14" height="57">
<g id="SVGID_11_">
<path id="Vector_7" d="M73.3919 1.83386C73.3486 1.83386 73.3486 1.83386 73.3919 1.83386C73.3486 1.87701 73.3486 1.87701 73.3486 1.87701C73.0459 2.22221 72.6567 2.65371 72.3972 2.95576C71.835 3.64616 71.2727 4.85435 70.97 5.54475C70.4943 6.6235 67.2074 13.0528 66.5587 20.2157C65.91 27.3786 66.8182 31.521 69.4996 35.3614C72.181 39.2017 75.2948 42.6969 75.2948 47.4002C75.2948 51.9741 73.6514 54.8651 69.8888 56.4617C68.8076 56.9363 67.2939 57.0658 65.6937 57.0658C65.6505 57.0658 65.6072 57.0658 65.5208 57.0658C66.256 57.3678 66.9912 57.5836 67.7697 57.7993C68.6779 57.713 70.1915 57.5404 73.0027 56.5048C76.2895 55.2966 78.5817 52.8802 78.7979 48.2201C79.0141 43.5599 75.857 40.151 73.8676 37.7346C71.8782 35.3182 70.8403 33.7648 69.1968 30.3128C67.5102 26.8608 67.6832 20.302 68.3319 15.6418C68.9806 10.9816 71.316 6.06255 72.3539 3.68931C72.6999 2.86946 73.0459 2.26536 73.3486 1.87701C73.3919 1.83386 73.3919 1.83386 73.3919 1.83386L73.4784 1.74756L73.3919 1.83386Z" fill="white"/>
</g>
</mask>
<g mask="url(#mask3_226_202)">
<path id="Vector_8" d="M79.0574 1.22974L81.1765 57.713L65.564 58.3171L63.4448 1.79069L79.0574 1.22974Z" fill="url(#paint3_linear_226_202)"/>
</g>
</g>
</g>
<g id="Group_6">
<path id="Vector_9" d="M46.2754 81.4024H49.7785V68.1985H56.3954V64.876H46.2754V81.4024Z" fill="#363636"/>
<path id="Vector_10" d="M65.1748 73.7217L62.1474 64.8328H58.2983L63.3584 77.0442C63.3584 77.0442 63.3584 77.3031 63.1854 77.5188C63.0124 77.7346 62.8826 77.864 62.6231 77.9503C62.3637 78.0798 62.1474 78.0366 61.7582 78.0366H60.2013V81.2729H62.0609C62.9259 81.2729 63.7043 81.1434 64.2666 80.8414C64.8288 80.5393 65.3045 80.2373 65.6938 79.7626C66.1262 79.2448 66.5155 78.5544 66.775 77.9503L71.7485 64.8328H68.0291L65.1748 73.7217Z" fill="#363636"/>
<path id="Vector_11" d="M97.1783 64.876L94.3239 73.7649L91.2966 64.876H87.4475L92.5075 77.0874C92.5075 77.0874 92.5075 77.3463 92.3345 77.5621C92.1615 77.7778 92.0318 77.9073 91.7723 77.9936C91.5128 78.123 91.2966 78.0799 90.9074 78.0799H89.3504V81.3161H91.2101C92.075 81.3161 92.8535 81.1867 93.4157 80.8846C93.978 80.5826 94.4537 80.2805 94.8429 79.8059C95.2754 79.2881 95.6646 78.5977 95.9241 77.9936L100.898 64.876H97.1783Z" fill="#363636"/>
<path id="Vector_12" d="M83.2958 65.5663C82.4741 65.0917 81.4794 64.8328 80.2684 64.8328H74.1272V81.3592H77.6735V76.0086H80.1387C81.3496 76.0086 82.3443 75.7929 83.2093 75.3182C84.031 74.8436 84.6797 74.1963 85.1554 73.3765C85.5879 72.5566 85.8042 71.5642 85.8042 70.4854C85.8042 69.4067 85.5879 68.4142 85.1554 67.5944C84.723 66.6882 84.1175 66.041 83.2958 65.5663ZM82.1281 71.9094C81.9118 72.3409 81.6091 72.6429 81.2199 72.9018C80.7874 73.1176 80.2684 73.247 79.6629 73.247H77.7168V67.7238H79.6629C80.3117 67.7238 80.8306 67.8533 81.2199 68.069C81.6523 68.2848 81.9551 68.63 82.1281 69.0183C82.3443 69.4498 82.4308 69.9245 82.4308 70.4423C82.4741 71.0032 82.3443 71.4779 82.1281 71.9094Z" fill="#363636"/>
<path id="Vector_13" d="M7.74144 93.2255H6.83323C6.78998 92.9666 6.70349 92.7077 6.53049 92.4919C6.40075 92.2762 6.22776 92.1036 6.05477 91.9741C5.88177 91.8447 5.66553 91.7152 5.40605 91.6289C5.18981 91.5426 4.93032 91.4995 4.67083 91.4995C4.1951 91.4995 3.80587 91.6289 3.41664 91.8447C3.02741 92.1036 2.72467 92.4488 2.50843 92.9234C2.29219 93.3981 2.16245 93.959 2.16245 94.6494C2.16245 95.3398 2.29219 95.9008 2.50843 96.3754C2.72467 96.8501 3.02741 97.1953 3.41664 97.4542C3.80587 97.7131 4.1951 97.7994 4.67083 97.7994C4.93032 97.7994 5.18981 97.7562 5.40605 97.6699C5.62229 97.5836 5.83853 97.4973 6.05477 97.3247C6.22776 97.1953 6.40075 97.0227 6.53049 96.8069C6.66024 96.5912 6.74674 96.3754 6.83323 96.0734H7.74144C7.65494 96.4617 7.5252 96.8501 7.35221 97.1521C7.17922 97.4542 6.91973 97.7562 6.66024 97.972C6.40075 98.1877 6.09801 98.3603 5.75203 98.4898C5.40605 98.6192 5.06006 98.6624 4.67083 98.6624C4.02211 98.6624 3.41664 98.4898 2.94091 98.1446C2.42193 97.7994 2.0327 97.3247 1.72997 96.7206C1.42723 96.1165 1.29749 95.383 1.29749 94.5631C1.29749 93.7433 1.42723 93.0097 1.72997 92.4056C2.0327 91.8015 2.42193 91.3269 2.94091 90.9817C3.45989 90.6365 4.02211 90.4639 4.67083 90.4639C5.06006 90.4639 5.40605 90.507 5.75203 90.6365C6.09801 90.7659 6.40075 90.9385 6.66024 91.1543C6.91973 91.37 7.17922 91.6289 7.35221 91.9741C7.5252 92.4488 7.65494 92.794 7.74144 93.2255Z" fill="#363636"/>
<path id="Vector_14" d="M9.21191 98.6624V90.7228H13.8395V91.5858H10.1201V94.2611H13.58V95.1241H10.1201V97.8425H13.8827V98.6624H9.21191Z" fill="#363636"/>
<path id="Vector_15" d="M21.2348 90.7228V98.6624H20.2833V91.5858H16.4342V98.6624H15.4828V90.7228H21.2348Z" fill="#363636"/>
<path id="Vector_16" d="M22.662 91.5858V90.7228H28.414V91.5858H25.9921V98.6624H25.0406V91.5858H22.662Z" fill="#363636"/>
<path id="Vector_17" d="M29.798 90.7228H30.7062V96.9795H30.7927L34.9877 90.7228H35.8959V98.6624H34.9445V92.4488H34.9012L30.7062 98.6624H29.798V90.7228Z" fill="#363636"/>
<path id="Vector_18" d="M42.2101 98.6624L39.5719 95.0378H38.6637V98.6624H37.7123V90.7228H38.6637V94.1748H39.053L42.1236 90.7228H43.248L40.1342 94.2179L43.3345 98.6624H42.2101Z" fill="#363636"/>
<path id="Vector_19" d="M44.5022 90.7228H45.4104V96.9795H45.4969L49.692 90.7228H50.6002V98.6624H49.6487V92.4488H49.5622L45.4104 98.6624H44.5022V90.7228Z" fill="#363636"/>
<path id="Vector_20" d="M55.3575 90.7228H56.2658V96.9795H56.3522L60.5473 90.7228H61.4555V98.6624H60.5041V92.4488H60.4176L56.2658 98.6624H55.3575V90.7228Z" fill="#363636"/>
<path id="Vector_21" d="M70.7106 98.6624L68.0724 95.0378H67.1642V98.6624H66.2128V90.7228H67.1642V94.1748H67.5535L70.6241 90.7228H71.7053L68.6347 94.2179L71.835 98.6624H70.7106Z" fill="#363636"/>
<path id="Vector_22" d="M73.4352 98.6624H72.4838L75.2949 90.7228H76.2463L79.0575 98.6624H78.106L75.8139 91.9741H75.7274L73.4352 98.6624ZM73.7812 95.5987H77.7168V96.4617H73.7812V95.5987Z" fill="#363636"/>
<path id="Vector_23" d="M80.3116 98.6624V90.7228H81.2631V94.2611H85.3284V90.7228H86.2799V98.6624H85.3284V95.1241H81.2631V98.6624H80.3116Z" fill="#363636"/>
<path id="Vector_24" d="M88.5287 98.6624H87.5773L90.3884 90.7228H91.3399L94.151 98.6624H93.1995L90.8641 92.0173H90.8209L88.5287 98.6624ZM88.8747 95.5987H92.8103V96.4617H88.8747V95.5987Z" fill="#363636"/>
<path id="Vector_25" d="M94.7565 98.6624V97.7994H94.9727C95.2754 97.7994 95.5349 97.7131 95.7079 97.4973C95.8809 97.2816 96.0107 96.9364 96.0972 96.4617C96.1837 95.9871 96.2269 95.383 96.2702 94.5631L96.3999 90.7228H101.071V98.6624H100.162V91.5858H97.3081L97.1784 94.7357C97.1351 95.5556 97.0919 96.2891 96.9621 96.8501C96.8324 97.4542 96.6594 97.8857 96.3566 98.1877C96.0539 98.4898 95.6214 98.6624 95.0592 98.6624H94.7565Z" fill="#363636"/>
<path id="Vector_26" d="M103.017 90.7228H103.925V96.9795H104.012L108.163 90.7228H109.072V98.6624H108.163V92.4488H108.077L103.925 98.6624H103.017V90.7228Z" fill="#363636"/>
<path id="Vector_27" d="M113.483 98.7918C113.007 98.7918 112.531 98.7055 112.185 98.5329C111.796 98.3603 111.493 98.1014 111.277 97.7993C111.061 97.4973 110.931 97.1089 110.888 96.7206H111.839C111.839 96.9795 111.926 97.1952 112.099 97.3678C112.229 97.5404 112.445 97.713 112.704 97.7993C112.964 97.8856 113.223 97.9719 113.526 97.9719C113.872 97.9719 114.132 97.9288 114.391 97.7993C114.651 97.6699 114.824 97.4973 114.997 97.2815C115.126 97.0658 115.213 96.8069 115.213 96.548C115.213 96.2459 115.126 95.987 114.997 95.7713C114.867 95.5555 114.651 95.3829 114.391 95.2535C114.132 95.124 113.786 95.0809 113.396 95.0809H112.791V94.2179H113.396C113.699 94.2179 113.959 94.1747 114.218 94.0453C114.434 93.9158 114.651 93.7864 114.78 93.5706C114.91 93.3549 114.997 93.1391 114.997 92.8371C114.997 92.5782 114.953 92.3193 114.824 92.1467C114.694 91.9741 114.564 91.8015 114.348 91.672C114.132 91.5426 113.915 91.4994 113.613 91.4994C113.353 91.4994 113.094 91.5426 112.877 91.6289C112.661 91.7152 112.445 91.8878 112.315 92.0604C112.185 92.233 112.099 92.4919 112.056 92.7508H111.147C111.147 92.3193 111.277 91.9741 111.493 91.672C111.71 91.37 112.012 91.1111 112.402 90.9385C112.791 90.7659 113.18 90.6796 113.613 90.6796C114.088 90.6796 114.478 90.7659 114.824 90.9816C115.169 91.1974 115.429 91.4563 115.602 91.7583C115.775 92.0604 115.861 92.4487 115.861 92.7939C115.861 93.2254 115.732 93.6138 115.515 93.959C115.299 94.261 114.997 94.4768 114.607 94.6062V94.6494C115.083 94.7357 115.472 94.9514 115.732 95.2966C115.991 95.6418 116.121 96.0733 116.121 96.548C116.121 96.9795 115.991 97.3678 115.775 97.713C115.559 98.0582 115.256 98.3171 114.867 98.5329C114.434 98.7055 113.959 98.7918 113.483 98.7918Z" fill="#363636"/>
<path id="Vector_28" d="M118.11 98.6624H117.159L119.97 90.7228H120.922L123.733 98.6624H122.781L120.489 91.9741H120.446L118.11 98.6624ZM118.5 95.5987H122.435V96.4617H118.5V95.5987Z" fill="#363636"/>
<path id="Vector_29" d="M125.03 98.6624V90.7228H125.895V97.7994H129.831V90.7228H130.696V98.6624H125.03ZM131.517 97.7562L131.431 100.561H130.479V98.6624H129.96V97.7562H131.517Z" fill="#363636"/>
<path id="Vector_30" d="M133.031 90.7228H133.939V96.9795H134.026L138.221 90.7228H139.086V98.6624H138.178V92.4488H138.091L133.939 98.6624H133.031V90.7228Z" fill="#363636"/>
<path id="Vector_31" d="M142.329 95.1241H143.367L141.508 98.7055H140.426L142.329 95.1241ZM145.919 98.6624H145.011V91.5858H143.367C142.935 91.5858 142.632 91.6721 142.373 91.8015C142.113 91.931 141.94 92.1036 141.81 92.3625C141.681 92.6214 141.637 92.8803 141.637 93.1823C141.637 93.4844 141.681 93.7864 141.81 94.0022C141.94 94.2179 142.113 94.3905 142.373 94.52C142.632 94.6494 142.935 94.6926 143.367 94.6926H145.443V95.5556H143.367C142.762 95.5556 142.286 95.4693 141.897 95.2535C141.508 95.0378 141.248 94.7789 141.032 94.3905C140.859 94.0453 140.772 93.6138 140.772 93.1392C140.772 92.6645 140.859 92.233 141.032 91.8878C141.205 91.4995 141.508 91.2406 141.897 91.0248C142.286 90.8091 142.762 90.7228 143.367 90.7228H145.962V98.6624H145.919Z" fill="#363636"/>
</g>
</g>
</g>
<defs>
<linearGradient id="paint0_linear_226_202" x1="81.6017" y1="40.3404" x2="82.3992" y2="18.251" gradientUnits="userSpaceOnUse">
<stop stop-color="#43AA45"/>
<stop offset="6.92613e-08" stop-color="#43AA45"/>
<stop offset="1" stop-color="#A1C334"/>
</linearGradient>
<linearGradient id="paint1_linear_226_202" x1="78.8929" y1="22.8514" x2="78.5692" y2="40.3524" gradientUnits="userSpaceOnUse">
<stop stop-color="#43AA45"/>
<stop offset="6.92613e-08" stop-color="#43AA45"/>
<stop offset="0.2338" stop-color="#59B041"/>
<stop offset="1" stop-color="#A1C334"/>
</linearGradient>
<linearGradient id="paint2_linear_226_202" x1="64.6668" y1="44.1632" x2="64.1153" y2="-9.85416" gradientUnits="userSpaceOnUse">
<stop stop-color="#26408D"/>
<stop offset="0.6565" stop-color="#2B91C8"/>
<stop offset="1" stop-color="#2B91C8"/>
</linearGradient>
<linearGradient id="paint3_linear_226_202" x1="71.6241" y1="11.4829" x2="73.0978" y2="50.9932" gradientUnits="userSpaceOnUse">
<stop stop-color="#26408D"/>
<stop offset="0.6565" stop-color="#2B91C8"/>
<stop offset="1" stop-color="#2B91C8"/>
</linearGradient>
<clipPath id="clip0_226_202">
<rect width="147" height="100" fill="white"/>
</clipPath>
</defs>
</svg>
