<svg width="56" height="56" viewBox="0 0 56 56" fill="none" xmlns="http://www.w3.org/2000/svg">
<g id="Frame" clip-path="url(#clip0_226_1090)">
<g id="Group">
<path id="Vector" d="M11.2862 10.9251C11.1324 10.7713 10.9238 10.6849 10.7062 10.6848C10.4887 10.6848 10.28 10.7712 10.1262 10.925L8.05562 12.9954L7.17242 12.1122C7.01857 11.9584 6.80992 11.872 6.59238 11.872C6.37483 11.872 6.16621 11.9585 6.01238 12.1123C5.85857 12.2661 5.77215 12.4748 5.77215 12.6923C5.77215 12.9098 5.85857 13.1185 6.01238 13.2723L7.4756 14.7355C7.63573 14.8957 7.84573 14.9758 8.05562 14.9758C8.26551 14.9758 8.47551 14.8958 8.63563 14.7356L11.2862 12.0852C11.44 11.9313 11.5265 11.7227 11.5265 11.5051C11.5265 11.2876 11.44 11.079 11.2862 10.9251ZM10.7328 19.4398H6.56571C5.67343 19.4398 4.94751 20.1658 4.94751 21.0581V25.225C4.94751 26.1173 5.67343 26.8434 6.56571 26.8434H10.7327C11.6251 26.8434 12.351 26.1173 12.351 25.225V21.0581C12.351 20.1658 11.6251 19.4398 10.7328 19.4398ZM10.7104 25.2027H6.58813V21.0805H10.7104V25.2027ZM10.7328 30.9534H6.56571C5.67343 30.9534 4.94751 31.6795 4.94751 32.5718V36.7387C4.94751 37.631 5.67343 38.357 6.56571 38.357H10.7327C11.6251 38.357 12.351 37.631 12.351 36.7387V32.5718C12.351 31.6795 11.6251 30.9534 10.7328 30.9534ZM10.7104 36.7163H6.58813V32.5941H10.7104V36.7163ZM10.7328 42.712H6.56571C5.67343 42.712 4.94751 43.4381 4.94751 44.3303V48.4973C4.94751 49.3896 5.67343 50.1156 6.56571 50.1156H10.7327C11.6251 50.1156 12.351 49.3896 12.351 48.4973V44.3303C12.351 43.4379 11.6251 42.712 10.7328 42.712ZM10.7104 48.4749H6.58813V44.3526H10.7104V48.4749Z" fill="#363636"/>
<path id="Vector_2" d="M54.6542 21.9425C54.4367 21.9425 54.228 22.029 54.0742 22.1828C53.9203 22.3367 53.8339 22.5453 53.8339 22.7629V53.2517C53.8339 53.8625 53.3371 54.3593 52.7264 54.3593H23.3553C22.7447 54.3593 22.2478 53.8625 22.2478 53.2517V12.2225C22.2478 11.6118 22.7446 11.115 23.3553 11.115H52.7262C53.3368 11.115 53.8337 11.6118 53.8337 12.2225V19.3996C53.8337 19.6172 53.9201 19.8258 54.074 19.9797C54.2278 20.1335 54.4365 20.22 54.6541 20.22C54.8716 20.22 55.0803 20.1335 55.2342 19.9797C55.388 19.8258 55.4744 19.6172 55.4744 19.3996V12.2225C55.4744 10.7072 54.2417 9.47437 52.7263 9.47437H48.3301V4.84454C48.3301 2.1735 46.1572 0.000328124 43.4855 0H6.05628C3.0068 0 0.525635 2.48106 0.525635 5.53054V51.0977C0.525635 53.769 2.69891 55.9421 5.37006 55.9421H18.5028C18.9558 55.9421 19.3231 55.575 19.3231 55.1218C19.3231 54.6687 18.9558 54.3015 18.5028 54.3015H5.37028C3.60366 54.3015 2.16648 52.8642 2.16648 51.0977V5.53054C2.16626 3.38559 3.91133 1.64062 6.05628 1.64062H39.8556C39.1003 2.49528 38.6404 3.61691 38.6404 4.84454V7.10859C38.6404 7.32615 38.7269 7.5348 38.8807 7.68864C39.0346 7.84248 39.2432 7.92891 39.4608 7.92891C39.6783 7.92891 39.887 7.84248 40.0408 7.68864C40.1946 7.5348 40.2811 7.32615 40.2811 7.10859V4.84454C40.2811 3.07792 41.7184 1.64062 43.4856 1.64062C45.2523 1.64062 46.6894 3.07792 46.6894 4.84454V9.47437H23.3554C21.8402 9.47437 20.6073 10.7071 20.6073 12.2225V12.7904H16.3454C15.8924 12.7904 15.5251 13.1576 15.5251 13.6107C15.5251 14.0638 15.8924 14.431 16.3454 14.431H20.6073V22.3212H16.3454C15.8924 22.3212 15.5251 22.6884 15.5251 23.1415C15.5251 23.5947 15.8924 23.9618 16.3454 23.9618H20.6073V33.8349H16.3454C15.8924 33.8349 15.5251 34.202 15.5251 34.6552C15.5251 35.1083 15.8924 35.4755 16.3454 35.4755H20.6073V45.5934H16.3454C15.8924 45.5934 15.5251 45.9606 15.5251 46.4137C15.5251 46.8669 15.8924 47.234 16.3454 47.234H20.6073V53.2518C20.6073 54.7671 21.84 56 23.3554 56H52.7264C54.2417 56 55.4745 54.7672 55.4745 53.2518V22.7629C55.4745 22.5453 55.3881 22.3367 55.2343 22.1828C55.0804 22.029 54.8718 21.9425 54.6542 21.9425Z" fill="#363636"/>
<path id="Vector_3" d="M50.2095 12.4123H25.5908C24.5139 12.4123 23.6379 13.2884 23.6379 14.3652V20.495C23.6379 21.5719 24.514 22.4479 25.5908 22.4479H50.2093C51.2862 22.4479 52.1622 21.5718 52.1622 20.495V14.3652H52.1623C52.1623 13.2883 51.2862 12.4123 50.2095 12.4123ZM50.2095 20.8073H25.5908C25.508 20.8072 25.4287 20.7742 25.3701 20.7157C25.3116 20.6572 25.2787 20.5778 25.2786 20.495V14.3652C25.2787 14.2824 25.3116 14.203 25.3702 14.1445C25.4287 14.086 25.508 14.053 25.5908 14.0529H50.2093C50.2921 14.053 50.3714 14.0859 50.43 14.1445C50.4885 14.203 50.5215 14.2824 50.5215 14.3652V20.495H50.5217C50.5216 20.5778 50.4887 20.6571 50.4301 20.7157C50.3716 20.7742 50.2923 20.8071 50.2095 20.8073ZM27.9981 24.0853H25.2984C24.3828 24.0853 23.6379 24.8302 23.6379 25.7458V28.3821C23.6379 29.2977 24.3828 30.0426 25.2984 30.0426H27.9981C28.9136 30.0426 29.6585 29.2977 29.6585 28.3821V25.7458C29.6584 24.8302 28.9136 24.0853 27.9981 24.0853ZM28.0178 28.382C28.0178 28.393 28.0089 28.4018 27.998 28.4018H25.2983C25.293 28.4018 25.288 28.3997 25.2843 28.396C25.2805 28.3923 25.2785 28.3873 25.2785 28.382V25.7458C25.2785 25.7348 25.2873 25.726 25.2983 25.726H27.998C28.0089 25.726 28.0178 25.7348 28.0178 25.7458V28.382ZM35.4992 24.0853H32.7995C31.8839 24.0853 31.1391 24.8302 31.1391 25.7458V28.3821C31.1391 29.2977 31.8839 30.0426 32.7995 30.0426H35.4992C36.4148 30.0426 37.1596 29.2977 37.1596 28.3821V25.7458C37.1597 24.8302 36.4149 24.0853 35.4992 24.0853ZM35.5191 28.382C35.5191 28.393 35.5103 28.4018 35.4993 28.4018H32.7995C32.7943 28.4018 32.7892 28.3997 32.7855 28.396C32.7818 28.3923 32.7797 28.3873 32.7797 28.382V25.7458C32.7797 25.7348 32.7886 25.726 32.7995 25.726H35.4992C35.5102 25.726 35.519 25.7348 35.519 25.7458V28.382H35.5191ZM43.0005 24.0853H40.3008C39.3852 24.0853 38.6404 24.8302 38.6404 25.7458V28.3821C38.6404 29.2977 39.3852 30.0426 40.3008 30.0426H43.0005C43.9161 30.0426 44.6609 29.2977 44.6609 28.3821V25.7458C44.661 24.8302 43.9162 24.0853 43.0005 24.0853ZM43.0204 28.382C43.0204 28.393 43.0115 28.4018 43.0006 28.4018H40.3009C40.2956 28.4018 40.2906 28.3997 40.2869 28.396C40.2832 28.3923 40.2811 28.3873 40.2811 28.382V25.7458C40.2811 25.7348 40.29 25.726 40.3009 25.726H43.0006C43.0115 25.726 43.0204 25.7348 43.0204 25.7458V28.382ZM50.502 24.0853H47.8023C46.8867 24.0853 46.1418 24.8302 46.1418 25.7458V28.3821C46.1418 29.2977 46.8867 30.0426 47.8023 30.0426H50.502C51.4175 30.0426 52.1624 29.2977 52.1624 28.3821V25.7458C52.1623 24.8302 51.4175 24.0853 50.502 24.0853ZM50.5217 28.382C50.5217 28.393 50.5128 28.4018 50.5019 28.4018H47.8022C47.7969 28.4018 47.7919 28.3997 47.7882 28.396C47.7844 28.3923 47.7824 28.3873 47.7824 28.382V25.7458C47.7824 25.7348 47.7912 25.726 47.8022 25.726H50.5019C50.5128 25.726 50.5217 25.7348 50.5217 25.7458V28.382ZM27.9981 31.6766H25.2984C24.3828 31.6766 23.6379 32.4215 23.6379 33.337V35.9734C23.6379 36.889 24.3828 37.6338 25.2984 37.6338H27.9981C28.9136 37.6338 29.6585 36.889 29.6585 35.9734V33.337C29.6584 32.4215 28.9136 31.6766 27.9981 31.6766ZM28.0178 35.9733C28.0178 35.9842 28.0089 35.9931 27.998 35.9931H25.2983C25.293 35.9931 25.288 35.991 25.2843 35.9873C25.2805 35.9836 25.2785 35.9786 25.2785 35.9733V33.3369C25.2785 33.326 25.2873 33.3171 25.2983 33.3171H27.998C28.0089 33.3171 28.0178 33.326 28.0178 33.3369V35.9733ZM35.4992 31.6766H32.7995C31.8839 31.6766 31.1391 32.4215 31.1391 33.337V35.9734C31.1391 36.889 31.8839 37.6338 32.7995 37.6338H35.4992C36.4148 37.6338 37.1596 36.889 37.1596 35.9734V33.337C37.1597 32.4215 36.4149 31.6766 35.4992 31.6766ZM35.5191 35.9733C35.5191 35.9842 35.5103 35.9931 35.4993 35.9931H32.7995C32.7943 35.9931 32.7892 35.991 32.7855 35.9873C32.7818 35.9836 32.7797 35.9786 32.7797 35.9733V33.3369C32.7797 33.326 32.7886 33.3171 32.7995 33.3171H35.4992C35.5102 33.3171 35.519 33.326 35.519 33.3369V35.9733H35.5191ZM43.0005 31.6766H40.3008C39.3852 31.6766 38.6404 32.4215 38.6404 33.337V35.9734C38.6404 36.889 39.3852 37.6338 40.3008 37.6338H43.0005C43.9161 37.6338 44.6609 36.889 44.6609 35.9734V33.337C44.661 32.4215 43.9162 31.6766 43.0005 31.6766ZM43.0204 35.9733C43.0204 35.9842 43.0115 35.9931 43.0006 35.9931H40.3009C40.2956 35.9931 40.2906 35.991 40.2869 35.9873C40.2832 35.9836 40.2811 35.9786 40.2811 35.9733V33.3369C40.2811 33.326 40.29 33.3171 40.3009 33.3171H43.0006C43.0115 33.3171 43.0204 33.326 43.0204 33.3369V35.9733ZM50.502 31.6766H47.8023C46.8867 31.6766 46.1418 32.4215 46.1418 33.337V35.9734C46.1418 36.889 46.8867 37.6338 47.8023 37.6338H50.502C51.4175 37.6338 52.1624 36.889 52.1624 35.9734V33.337C52.1623 32.4215 51.4175 31.6766 50.502 31.6766ZM50.5217 35.9733C50.5217 35.9842 50.5128 35.9931 50.5019 35.9931H47.8022C47.7969 35.9931 47.7919 35.991 47.7882 35.9873C47.7844 35.9836 47.7824 35.9786 47.7824 35.9733V33.3369C47.7824 33.326 47.7912 33.3171 47.8022 33.3171H50.5019C50.5128 33.3171 50.5217 33.326 50.5217 33.3369V35.9733ZM27.9981 39.2679H25.2984C24.3828 39.2679 23.6379 40.0127 23.6379 40.9283V43.5647C23.6379 44.4803 24.3828 45.2251 25.2984 45.2251H27.9981C28.9136 45.2251 29.6585 44.4803 29.6585 43.5647V40.9283C29.6584 40.0127 28.9136 39.2679 27.9981 39.2679ZM28.0178 43.5647C28.0178 43.5756 28.0089 43.5845 27.998 43.5845H25.2983C25.293 43.5845 25.288 43.5824 25.2843 43.5787C25.2805 43.575 25.2785 43.5699 25.2785 43.5647V40.9283C25.2785 40.9174 25.2873 40.9085 25.2983 40.9085H27.998C28.0089 40.9085 28.0178 40.9174 28.0178 40.9283V43.5647ZM35.4992 39.2679H32.7995C31.8839 39.2679 31.1391 40.0127 31.1391 40.9283V43.5647C31.1391 44.4803 31.8839 45.2251 32.7995 45.2251H35.4992C36.4148 45.2251 37.1596 44.4803 37.1596 43.5647V40.9283C37.1597 40.0127 36.4149 39.2679 35.4992 39.2679ZM35.5191 43.5647C35.5191 43.5756 35.5103 43.5845 35.4993 43.5845H32.7995C32.7943 43.5845 32.7892 43.5824 32.7855 43.5787C32.7818 43.575 32.7797 43.5699 32.7797 43.5647V40.9283C32.7797 40.9174 32.7886 40.9085 32.7995 40.9085H35.4992C35.5102 40.9085 35.519 40.9174 35.519 40.9283V43.5647H35.5191ZM43.0005 39.2679H40.3008C39.3852 39.2679 38.6404 40.0127 38.6404 40.9283V43.5647C38.6404 44.4803 39.3852 45.2251 40.3008 45.2251H43.0005C43.9161 45.2251 44.6609 44.4803 44.6609 43.5647V40.9283C44.661 40.0127 43.9162 39.2679 43.0005 39.2679ZM43.0204 43.5647C43.0204 43.5756 43.0115 43.5845 43.0006 43.5845H40.3009C40.2956 43.5845 40.2906 43.5824 40.2869 43.5787C40.2832 43.575 40.2811 43.5699 40.2811 43.5647V40.9283C40.2811 40.9174 40.29 40.9085 40.3009 40.9085H43.0006C43.0115 40.9085 43.0204 40.9174 43.0204 40.9283V43.5647ZM50.502 39.2679H47.8023C46.8867 39.2679 46.1418 40.0127 46.1418 40.9283V50.6988C46.1418 51.6144 46.8867 52.3592 47.8023 52.3592H50.502C51.4175 52.3592 52.1624 51.6144 52.1624 50.6988V40.9283C52.1623 40.0127 51.4175 39.2679 50.502 39.2679ZM50.5217 50.6988C50.5217 50.7097 50.5128 50.7186 50.5019 50.7186H47.8022C47.7969 50.7186 47.7919 50.7165 47.7882 50.7128C47.7844 50.7091 47.7824 50.704 47.7824 50.6988V40.9283C47.7824 40.9174 47.7912 40.9085 47.8022 40.9085H50.5019C50.5128 40.9085 50.5217 40.9174 50.5217 40.9283V50.6988ZM27.9982 46.4021H25.2985C24.3829 46.4021 23.638 47.1469 23.638 48.0625V50.6989C23.638 51.6145 24.3829 52.3593 25.2985 52.3593H27.9982C28.9138 52.3593 29.6586 51.6145 29.6586 50.6989V48.0625C29.6584 47.1469 28.9136 46.4021 27.9982 46.4021ZM28.0178 50.6988C28.0178 50.7097 28.0089 50.7186 27.998 50.7186H25.2983C25.293 50.7186 25.288 50.7165 25.2843 50.7128C25.2805 50.7091 25.2785 50.704 25.2785 50.6988V48.0624C25.2785 48.0515 25.2873 48.0426 25.2983 48.0426H27.998C28.0089 48.0426 28.0178 48.0515 28.0178 48.0624V50.6988ZM35.4994 46.4021H32.7997C31.8842 46.4021 31.1393 47.1469 31.1393 48.0625V50.6989C31.1393 51.6145 31.8842 52.3593 32.7997 52.3593H35.4994C36.415 52.3593 37.1599 51.6145 37.1599 50.6989V48.0625C37.1598 47.1469 36.4149 46.4021 35.4994 46.4021ZM35.5191 50.6988C35.5191 50.7097 35.5103 50.7186 35.4993 50.7186H32.7995C32.7943 50.7186 32.7892 50.7165 32.7855 50.7128C32.7818 50.7091 32.7797 50.704 32.7797 50.6988V48.0624C32.7797 48.0515 32.7886 48.0426 32.7995 48.0426H35.4992C35.5102 48.0426 35.519 48.0515 35.519 48.0624V50.6988H35.5191ZM43.0007 46.4021H40.301C39.3854 46.4021 38.6406 47.1469 38.6406 48.0625V50.6989C38.6406 51.6145 39.3854 52.3593 40.301 52.3593H43.0007C43.9163 52.3593 44.6611 51.6145 44.6611 50.6989V48.0625C44.661 47.1469 43.9162 46.4021 43.0007 46.4021ZM43.0204 50.6988C43.0204 50.7097 43.0115 50.7186 43.0006 50.7186H40.3009C40.2956 50.7186 40.2906 50.7165 40.2869 50.7128C40.2832 50.7091 40.2811 50.704 40.2811 50.6988V48.0624C40.2811 48.0515 40.29 48.0426 40.3009 48.0426H43.0006C43.0115 48.0426 43.0204 48.0515 43.0204 48.0624V50.6988Z" fill="#363636"/>
</g>
</g>
<defs>
<clipPath id="clip0_226_1090">
<rect width="56" height="56" fill="white"/>
</clipPath>
</defs>
</svg>
