<svg width="56" height="56" viewBox="0 0 56 56" fill="none" xmlns="http://www.w3.org/2000/svg">
<g id="Frame">
<g id="Group">
<path id="Vector" d="M49.1167 42.4375C49.3343 42.4375 49.5429 42.3511 49.6968 42.1972C49.8506 42.0434 49.937 41.8348 49.937 41.6172V21.9297C49.937 20.9506 49.5554 19.949 48.8625 19.1096L42.7788 11.7384C42.469 11.3617 42.1039 11.0343 41.6957 10.7674C41.7201 10.5167 41.734 10.2635 41.734 10.0079V0.820435C41.734 0.602874 41.6476 0.394224 41.4937 0.240386C41.3399 0.0865476 41.1312 0.00012207 40.9137 0.00012207C40.6961 0.00012207 40.4875 0.0865476 40.3336 0.240386C40.1798 0.394224 40.0934 0.602874 40.0934 0.820435C40.0934 0.820435 40.0917 10.0861 40.0911 10.1253C39.8572 10.0837 39.62 10.0627 39.3824 10.0626H28.7731C28.0261 10.0626 27.294 10.2722 26.6385 10.6573C26.6099 10.6674 26.5818 10.6791 26.5545 10.6923L18.558 14.5874C17.6696 15.0343 16.9644 15.7763 16.563 16.6862C16.5586 16.6961 16.5545 16.7061 16.5505 16.7161L13.2443 25.1021C13.1681 25.3038 13.1744 25.5273 13.2617 25.7244C13.349 25.9215 13.5103 26.0763 13.7109 26.1553C13.9114 26.2344 14.135 26.2314 14.3333 26.1469C14.5316 26.0624 14.6887 25.9033 14.7707 25.7039L18.0704 17.3341C18.3186 16.7797 18.7525 16.3254 19.285 16.0581L23.5099 14.0002L19.2929 19.1097C18.6615 19.8747 18.3278 20.8499 18.3278 21.9299V50.258C18.3278 50.5879 18.3567 50.9109 18.4093 51.2257L9.95662 47.4802C8.04716 46.6342 7.18178 44.3869 8.02791 42.4706L8.03852 42.4456L13.3851 29.1583C13.4663 28.9565 13.464 28.7306 13.3787 28.5305C13.2935 28.3303 13.1322 28.1722 12.9303 28.091C12.7285 28.0098 12.5026 28.0121 12.3025 28.0974C12.1023 28.1826 11.9443 28.344 11.863 28.5458L6.52116 41.8207C5.32 44.5606 6.56075 47.7699 9.29195 48.98L19.204 53.3721C19.2161 53.3774 19.2285 53.3814 19.2407 53.3861C20.2467 54.958 21.986 56 23.9606 56H44.1949C47.3075 56 49.9371 53.3704 49.9371 50.2578V45.4453C49.9371 45.2278 49.8507 45.0191 49.6969 44.8653C49.543 44.7114 49.3344 44.625 49.1168 44.625C48.8993 44.625 48.6906 44.7114 48.5368 44.8653C48.3829 45.0191 48.2965 45.2278 48.2965 45.4453V50.2578C48.2965 52.4811 46.4182 54.3594 44.1949 54.3594H23.9606C21.7593 54.3594 19.9684 52.5195 19.9684 50.2578V21.9297C19.9684 21.2255 20.1668 20.628 20.5582 20.1539L26.642 12.7827C27.2082 12.0967 27.985 11.7031 28.7731 11.7031H39.3824C39.537 11.7031 39.691 11.7188 39.8431 11.7483C39.3296 13.4995 38.0576 14.9608 36.3398 15.693C35.8906 14.9417 35.0695 14.4375 34.1323 14.4375C32.715 14.4375 31.562 15.5905 31.562 17.0078C31.562 18.4251 32.715 19.5781 34.1323 19.5781C35.443 19.5781 36.5269 18.5918 36.6827 17.3225C38.892 16.4869 40.5626 14.7163 41.3069 12.5552C41.3792 12.6278 41.4482 12.7037 41.5135 12.7827L47.5973 20.154C48.0481 20.7002 48.2965 21.3309 48.2965 21.9298V41.6173C48.2965 41.725 48.3177 41.8317 48.3589 41.9312C48.4001 42.0307 48.4605 42.1211 48.5367 42.1973C48.6129 42.2735 48.7033 42.3339 48.8028 42.3751C48.9023 42.4163 49.009 42.4375 49.1167 42.4375ZM34.1323 17.9375C33.6197 17.9375 33.2026 17.5205 33.2026 17.0078C33.2026 16.4952 33.6197 16.0781 34.1323 16.0781C34.645 16.0781 35.062 16.4952 35.062 17.0078C35.062 17.5205 34.645 17.9375 34.1323 17.9375Z" fill="#363636"/>
<path id="Vector_2" d="M27.0229 43.6406C27.1307 43.6408 27.2374 43.6196 27.3369 43.5784C27.4365 43.5372 27.5269 43.4766 27.603 43.4003L41.603 29.4003C41.7568 29.2465 41.8432 29.0379 41.8432 28.8203C41.8432 28.6028 41.7568 28.3941 41.603 28.2403C41.4491 28.0865 41.2405 28.0001 41.0229 28.0001C40.8054 28.0001 40.5968 28.0865 40.4429 28.2403L26.4429 42.2403C25.9199 42.7278 26.3212 43.6655 27.0229 43.6406ZM28.7729 35C30.7329 35 32.3276 33.4053 32.3276 31.4453C32.3276 29.4853 30.7329 27.8906 28.7729 27.8906H28.6636C26.7036 27.8906 25.1089 29.4853 25.1089 31.4453C25.1089 33.4053 26.7036 35 28.6636 35H28.7729ZM26.7495 31.4453C26.7495 30.39 27.6082 29.5313 28.6636 29.5313H28.7729C29.8283 29.5313 30.687 30.39 30.687 31.4453C30.687 32.5007 29.8283 33.3594 28.7729 33.3594H28.6636C27.6082 33.3594 26.7495 32.5007 26.7495 31.4453ZM39.3823 43.6406H39.4917C41.4517 43.6406 43.0464 42.046 43.0464 40.086C43.0464 38.126 41.4517 36.5313 39.4917 36.5313H39.3823C37.4223 36.5313 35.8276 38.126 35.8276 40.086C35.8276 42.046 37.4223 43.6406 39.3823 43.6406ZM39.3823 38.1719H39.4917C40.5471 38.1719 41.4058 39.0306 41.4058 40.086C41.4058 41.1413 40.5471 42 39.4917 42H39.3823C38.327 42 37.4683 41.1413 37.4683 40.086C37.4683 39.0306 38.327 38.1719 39.3823 38.1719Z" fill="#363636"/>
</g>
</g>
</svg>
