<svg width="56" height="56" viewBox="0 0 56 56" fill="none" xmlns="http://www.w3.org/2000/svg">
<g id="Frame" clip-path="url(#clip0_226_1107)">
<g id="Group">
<g id="Clip path group">
<mask id="mask0_226_1107" style="mask-type:luminance" maskUnits="userSpaceOnUse" x="0" y="0" width="56" height="56">
<g id="a">
<path id="Vector" d="M54.9998 55V1.00017H1V55H54.9998Z" fill="white" stroke="white" stroke-width="2"/>
</g>
</mask>
<g mask="url(#mask0_226_1107)">
<g id="Group_2">
<path id="Vector_2" d="M7.74999 38.9375C7.74999 38.8861 7.70771 38.8438 7.65625 38.8438C7.60478 38.8438 7.5625 38.8861 7.5625 38.9375C7.5625 38.989 7.60478 39.0313 7.65625 39.0313C7.70771 39.0313 7.74999 38.989 7.74999 38.9375Z" fill="#363636" stroke="#363636" stroke-width="2"/>
<path id="Vector_3" d="M29.0454 14.2189C26.5965 14.2057 24.9844 13.1875 24.2079 11.8498C23.8534 11.2408 23.6669 10.5486 23.6675 9.84388C23.6687 8.90873 24 7.97358 24.6618 7.20905C25.5466 6.1853 27.0243 5.4689 29.0936 5.4689C31.2876 5.4689 32.8157 6.27171 33.6776 7.3917C34.2407 8.12014 34.5208 8.98201 34.5197 9.84388C34.5197 10.4717 34.3699 11.0995 34.0712 11.6759C33.334 13.0978 31.6912 14.2047 29.1418 14.2189" stroke="#363636" stroke-width="2" stroke-miterlimit="10" stroke-linecap="round" stroke-linejoin="round"/>
<path id="Vector_4" d="M24.2079 11.8498C24.2079 11.8498 18.0326 15.4789 18.0151 15.4888C18.0337 15.4778 18.0107 15.4909 17.9254 15.5423L17.8816 15.5675C17.9101 15.5511 17.8871 15.5642 17.8313 15.597C17.8116 15.6079 17.7909 15.6211 17.7679 15.6343C17.6235 15.7184 17.4759 15.8059 17.4759 15.8059C16.556 16.3473 15.4196 16.5606 14.2285 16.2882C12.0192 15.7818 10.769 12.9359 10.5393 9.8406C10.2309 5.69093 11.7556 1.09391 15.2621 1.09391C16.2695 1.09391 17.1981 1.43418 17.9374 2.0061C17.9374 2.0061 18.1398 2.1625 18.1551 2.17453L18.1573 2.17683C18.1824 2.19531 18.2129 2.21938 18.2173 2.22266L18.3837 2.35172C18.3859 2.35281 18.388 2.355 18.3891 2.355V2.35609L24.6618 7.20905" stroke="#363636" stroke-width="2" stroke-miterlimit="10" stroke-linecap="round" stroke-linejoin="round"/>
<path id="Vector_5" d="M40.5703 15.4953L40.5922 15.5084" stroke="#363636" stroke-width="2" stroke-miterlimit="10" stroke-linecap="round" stroke-linejoin="round"/>
<path id="Vector_6" d="M33.6787 7.39061L40.6371 2.0061C41.4029 1.41339 42.3441 1.09246 43.3124 1.09391C46.8179 1.09391 48.3448 5.69093 48.0352 9.8405C47.8066 12.9358 46.5565 15.7818 44.3471 16.2882C43.1549 16.5606 42.0196 16.3473 41.0987 15.8058L40.6503 15.5422C40.5748 15.4975 40.5584 15.4887 40.5923 15.5084C40.5846 15.5029 40.577 15.4997 40.5704 15.4953L40.5321 15.4723H40.531L40.5278 15.4701L40.5267 15.4689L34.0714 11.6759" stroke="#363636" stroke-width="2" stroke-miterlimit="10" stroke-linecap="round" stroke-linejoin="round"/>
<path id="Vector_7" d="M34.0714 11.6759L45.4606 27.3373L39.4844 25.736L37.8832 31.7122L29.0456 14.2189H29.142L20.3044 31.7122L18.7032 25.736L12.7271 27.3373L24.208 11.8498" stroke="#363636" stroke-width="2" stroke-miterlimit="10" stroke-linecap="round" stroke-linejoin="round"/>
<path id="Vector_8" d="M48.0746 9.84389H52.7186C53.9272 9.84389 54.9061 10.8228 54.9061 12.0314V20.7814H40.6929" stroke="#363636" stroke-width="2" stroke-miterlimit="10" stroke-linecap="round" stroke-linejoin="round"/>
<path id="Vector_9" d="M17.5864 20.7814H1.09375V12.0314C1.09375 10.8228 2.07265 9.84389 3.28124 9.84389H10.5" stroke="#363636" stroke-width="2" stroke-miterlimit="10" stroke-linecap="round" stroke-linejoin="round"/>
<path id="Vector_10" d="M52.7186 20.7813V52.7188C52.7186 53.9273 51.0835 54.9062 49.8749 54.9062H5.46874C4.26015 54.9062 3.28125 53.9273 3.28125 52.7188V20.7813" stroke="#363636" stroke-width="2" stroke-miterlimit="10" stroke-linecap="round" stroke-linejoin="round"/>
<path id="Vector_11" d="M19.25 9.84387H23.6676" stroke="#363636" stroke-width="2" stroke-miterlimit="10" stroke-linecap="round" stroke-linejoin="round"/>
<path id="Vector_12" d="M34.5195 9.84387H38.9372" stroke="#363636" stroke-width="2" stroke-miterlimit="10" stroke-linecap="round" stroke-linejoin="round"/>
<path id="Vector_13" d="M32.375 20.8087V54.9062" stroke="#363636" stroke-width="2" stroke-miterlimit="10" stroke-linecap="round" stroke-linejoin="round"/>
<path id="Vector_14" d="M25.8125 54.9062V20.8087" stroke="#363636" stroke-width="2" stroke-miterlimit="10" stroke-linecap="round" stroke-linejoin="round"/>
<path id="Vector_15" d="M7.65625 43.3125V50.5313" stroke="#363636" stroke-width="2" stroke-miterlimit="10" stroke-linecap="round" stroke-linejoin="round"/>
</g>
</g>
</g>
</g>
</g>
<defs>
<clipPath id="clip0_226_1107">
<rect width="56" height="56" fill="white"/>
</clipPath>
</defs>
</svg>
