<svg width="0" height="0" class="hidden">
  <symbol xmlns="http://www.w3.org/2000/svg" viewBox="0 0 22 22" id="ic_arr_hor">
    <path d="M8.05007 11.9227L13.0026 16.8665C13.0839 16.9485 13.1807 17.0136 13.2873 17.058C13.3939 17.1024 13.5083 17.1253 13.6238 17.1253C13.7393 17.1253 13.8537 17.1024 13.9603 17.058C14.0669 17.0136 14.1637 16.9485 14.2451 16.8665C14.408 16.7025 14.4995 16.4808 14.4995 16.2496C14.4995 16.0184 14.408 15.7967 14.2451 15.6327L9.91382 11.2577L14.2451 6.92647C14.408 6.76252 14.4995 6.54076 14.4995 6.30959C14.4995 6.07843 14.408 5.85666 14.2451 5.69272C14.164 5.61004 14.0674 5.54427 13.9608 5.49921C13.8541 5.45415 13.7396 5.4307 13.6238 5.43022C13.5081 5.4307 13.3935 5.45415 13.2869 5.49921C13.1802 5.54427 13.0836 5.61004 13.0026 5.69272L8.05007 10.6365C7.96125 10.7184 7.89037 10.8178 7.84189 10.9285C7.79341 11.0392 7.76838 11.1588 7.76838 11.2796C7.76838 11.4004 7.79341 11.52 7.84189 11.6306C7.89037 11.7413 7.96125 11.8408 8.05007 11.9227Z" fill="currentColor"></path>
  </symbol>
  <symbol xmlns="http://www.w3.org/2000/svg" viewBox="0 0 21 20" id="ic_arrow_hor">
    <path d="M14.6667 6.66666L18 9.99999M18 9.99999L14.6667 13.3333M18 9.99999H3" stroke="currentColor" stroke-width="2" stroke-linecap="round" stroke-linejoin="round" fill="none"></path>
  </symbol>
  <symbol xmlns="http://www.w3.org/2000/svg" viewBox="0 0 32 33" id="ic_check">
    <path d="M6.66663 17.8334L12 23.1667L25.3333 9.83337" stroke="currentColor" stroke-width="4" stroke-linecap="round" stroke-linejoin="round" fill="none"></path>
  </symbol>
  <symbol xmlns="http://www.w3.org/2000/svg" viewBox="0 0 24 24" id="ic_check2">
    <path d="M12 22C13.3135 22.0017 14.6143 21.7438 15.8278 21.2412C17.0413 20.7385 18.1435 20.001 19.071 19.071C20.001 18.1435 20.7385 17.0413 21.2412 15.8278C21.7438 14.6143 22.0017 13.3135 22 12C22.0017 10.6865 21.7438 9.3857 21.2411 8.17222C20.7385 6.95875 20.001 5.85656 19.071 4.92901C18.1435 3.99902 17.0413 3.26151 15.8278 2.75885C14.6143 2.25619 13.3135 1.99831 12 2.00001C10.6865 1.99833 9.3857 2.25623 8.17222 2.75889C6.95875 3.26154 5.85656 3.99904 4.92901 4.92901C3.99904 5.85656 3.26154 6.95875 2.75889 8.17222C2.25623 9.3857 1.99833 10.6865 2.00001 12C1.99831 13.3135 2.25619 14.6143 2.75885 15.8278C3.26151 17.0413 3.99902 18.1435 4.92901 19.071C5.85656 20.001 6.95875 20.7385 8.17222 21.2411C9.3857 21.7438 10.6865 22.0017 12 22Z" fill="currentColor" stroke="currentColor" stroke-width="4" stroke-linejoin="round"></path>
    <path d="M8 12L11 15L17 9" stroke="white" stroke-width="4" stroke-linecap="round" stroke-linejoin="round" fill="none"></path>
  </symbol>
  <symbol xmlns="http://www.w3.org/2000/svg" viewBox="0 0 20 20" id="ic_gift">
    <path fill-rule="evenodd" clip-rule="evenodd" d="M5 5.00001C5.00001 4.42089 5.16765 3.85415 5.48266 3.3682C5.79768 2.88225 6.24662 2.49787 6.77529 2.26145C7.30395 2.02503 7.88975 1.94668 8.46196 2.03586C9.03418 2.12504 9.56835 2.37793 10 2.76401C10.4964 2.31912 11.1268 2.05222 11.7918 2.00544C12.4567 1.95867 13.1183 2.13469 13.6721 2.50572C14.2259 2.87674 14.6403 3.42164 14.85 4.05439C15.0597 4.68714 15.0526 5.3717 14.83 6.00001H16C16.5304 6.00001 17.0391 6.21073 17.4142 6.5858C17.7893 6.96087 18 7.46958 18 8.00001C18 8.53045 17.7893 9.03915 17.4142 9.41423C17.0391 9.7893 16.5304 10 16 10H11V9.00001C11 8.7348 10.8946 8.48044 10.7071 8.29291C10.5196 8.10537 10.2652 8.00001 10 8.00001C9.73478 8.00001 9.48043 8.10537 9.29289 8.29291C9.10536 8.48044 9 8.7348 9 9.00001V10H4C3.46957 10 2.96086 9.7893 2.58579 9.41423C2.21071 9.03915 2 8.53045 2 8.00001C2 7.46958 2.21071 6.96087 2.58579 6.5858C2.96086 6.21073 3.46957 6.00001 4 6.00001H5.17C5.06 5.68701 5 5.35001 5 5.00001ZM9 6.00001V5.00001C9 4.80223 8.94135 4.60889 8.83147 4.44444C8.72159 4.27999 8.56541 4.15182 8.38268 4.07613C8.19996 4.00044 7.99889 3.98064 7.80491 4.01923C7.61093 4.05781 7.43275 4.15305 7.29289 4.29291C7.15304 4.43276 7.0578 4.61094 7.01921 4.80492C6.98063 4.9989 7.00043 5.19997 7.07612 5.38269C7.15181 5.56542 7.27998 5.7216 7.44443 5.83148C7.60888 5.94136 7.80222 6.00001 8 6.00001H9ZM12 6.00001C12.1978 6.00001 12.3911 5.94136 12.5556 5.83148C12.72 5.7216 12.8482 5.56542 12.9239 5.38269C12.9996 5.19997 13.0194 4.9989 12.9808 4.80492C12.9422 4.61094 12.847 4.43276 12.7071 4.29291C12.5673 4.15305 12.3891 4.05781 12.1951 4.01923C12.0011 3.98064 11.8 4.00044 11.6173 4.07613C11.4346 4.15182 11.2784 4.27999 11.1685 4.44444C11.0586 4.60889 11 4.80223 11 5.00001V6.00001H12Z" fill="currentColor"></path>
    <path d="M9 11H3V16C3 16.5304 3.21071 17.0391 3.58579 17.4142C3.96086 17.7893 4.46957 18 5 18H9V11ZM11 18H15C15.5304 18 16.0391 17.7893 16.4142 17.4142C16.7893 17.0391 17 16.5304 17 16V11H11V18Z" fill="currentColor"></path>
  </symbol>
  <symbol xmlns="http://www.w3.org/2000/svg" viewBox="0 0 40 40" id="ic_location">
    <path d="M26.6778 26.4285C30.9343 19.7494 30.3992 20.5827 30.5219 20.4085C32.0716 18.2227 32.8906 15.6502 32.8906 12.9688C32.8906 5.85781 27.1202 0 20 0C12.903 0 7.10938 5.84625 7.10938 12.9688C7.10938 15.6484 7.94563 18.2884 9.54609 20.5036L13.322 26.4286C9.28492 27.049 2.42188 28.8978 2.42188 32.9688C2.42188 34.4527 3.39047 36.5676 8.00484 38.2155C11.2269 39.3662 15.4868 40 20 40C28.4395 40 37.5781 37.6194 37.5781 32.9688C37.5781 28.8971 30.7231 27.0502 26.6778 26.4285ZM11.5038 19.2145C11.4909 19.1943 11.4775 19.1746 11.4634 19.1552C10.1316 17.323 9.45312 15.1516 9.45312 12.9688C9.45312 7.10797 14.1723 2.34375 20 2.34375C25.8155 2.34375 30.5469 7.11008 30.5469 12.9688C30.5469 15.1552 29.8812 17.2529 28.6214 19.0368C28.5085 19.1857 29.0975 18.2707 20 32.546L11.5038 19.2145ZM20 37.6562C10.7817 37.6562 4.76562 34.9466 4.76562 32.9688C4.76562 31.6394 7.85687 29.4535 14.7069 28.6015L19.0117 35.3564C19.1176 35.5226 19.2636 35.6593 19.4363 35.7541C19.6091 35.8489 19.8029 35.8985 19.9999 35.8985C20.1969 35.8985 20.3908 35.8489 20.5635 35.7541C20.7362 35.6593 20.8823 35.5226 20.9881 35.3564L25.2929 28.6015C32.143 29.4535 35.2344 31.6394 35.2344 32.9688C35.2344 34.9298 29.2724 37.6562 20 37.6562Z" fill="currentColor"></path>
    <path d="M20 7.10938C16.7691 7.10938 14.1406 9.73789 14.1406 12.9688C14.1406 16.1996 16.7691 18.8281 20 18.8281C23.2309 18.8281 25.8594 16.1996 25.8594 12.9688C25.8594 9.73789 23.2309 7.10938 20 7.10938ZM20 16.4844C18.0615 16.4844 16.4844 14.9073 16.4844 12.9688C16.4844 11.0302 18.0615 9.45312 20 9.45312C21.9385 9.45312 23.5156 11.0302 23.5156 12.9688C23.5156 14.9073 21.9385 16.4844 20 16.4844Z" fill="currentColor"></path>
  </symbol>
  <symbol xmlns="http://www.w3.org/2000/svg" viewBox="0 0 20 20" id="ic_phone">
    <path d="M2 3C2 2.73478 2.10536 2.48043 2.29289 2.29289C2.48043 2.10536 2.73478 2 3 2H5.153C5.38971 2.00011 5.6187 2.08418 5.79924 2.23726C5.97979 2.39034 6.10018 2.6025 6.139 2.836L6.879 7.271C6.91436 7.48222 6.88097 7.69921 6.78376 7.89003C6.68655 8.08085 6.53065 8.23543 6.339 8.331L4.791 9.104C5.34611 10.4797 6.17283 11.7293 7.22178 12.7782C8.27072 13.8272 9.52035 14.6539 10.896 15.209L11.67 13.661C11.7655 13.4695 11.9199 13.3138 12.1106 13.2166C12.3012 13.1194 12.5179 13.0859 12.729 13.121L17.164 13.861C17.3975 13.8998 17.6097 14.0202 17.7627 14.2008C17.9158 14.3813 17.9999 14.6103 18 14.847V17C18 17.2652 17.8946 17.5196 17.7071 17.7071C17.5196 17.8946 17.2652 18 17 18H15C7.82 18 2 12.18 2 5V3Z" fill="currentColor"></path>
  </symbol>
  <symbol xmlns="http://www.w3.org/2000/svg" viewBox="0 0 40 40" id="ic_phone2">
    <path d="M34.7453 24.7594L27.3844 21.4609L27.3641 21.4516C26.9819 21.2881 26.5651 21.2225 26.1512 21.2607C25.7373 21.2989 25.3395 21.4397 24.9938 21.6703C24.9531 21.6972 24.9139 21.7264 24.8766 21.7578L21.0735 25C18.6641 23.8297 16.1766 21.3609 15.0063 18.9828L18.2531 15.1219C18.2844 15.0828 18.3141 15.0437 18.3422 15.0016C18.5679 14.6567 18.7048 14.2614 18.7408 13.8509C18.7768 13.4403 18.7107 13.0273 18.5485 12.6484V12.6297L15.2406 5.25624C15.0262 4.76134 14.6574 4.34907 14.1894 4.08099C13.7213 3.8129 13.1792 3.70337 12.6438 3.76874C10.5265 4.04734 8.58311 5.08713 7.17647 6.69389C5.76984 8.30065 4.99619 10.3645 5.00001 12.5C5.00001 24.9062 15.0938 35 27.5 35C29.6355 35.0038 31.6994 34.2302 33.3061 32.8235C34.9129 31.4169 35.9527 29.4735 36.2313 27.3562C36.2968 26.821 36.1875 26.279 35.9197 25.811C35.6519 25.343 35.2399 24.9741 34.7453 24.7594ZM27.5 32.5C22.1975 32.4942 17.1137 30.3852 13.3643 26.6357C9.6148 22.8863 7.5058 17.8025 7.50001 12.5C7.49414 10.9742 8.04384 9.49842 9.04648 8.34828C10.0491 7.19814 11.4361 6.45228 12.9485 6.24999C12.9478 6.25622 12.9478 6.2625 12.9485 6.26874L16.2297 13.6125L13 17.4781C12.9672 17.5158 12.9375 17.5561 12.911 17.5984C12.6758 17.9592 12.5379 18.3747 12.5105 18.8045C12.4831 19.2343 12.5672 19.6638 12.7547 20.0516C14.1703 22.9469 17.0875 25.8422 20.0141 27.2562C20.4046 27.4419 20.8367 27.5231 21.2681 27.4919C21.6994 27.4607 22.1153 27.3181 22.475 27.0781C22.5151 27.0511 22.5537 27.0219 22.5906 26.9906L26.3891 23.75L33.7328 27.0391H33.75C33.5502 28.5535 32.8054 29.9433 31.6551 30.9484C30.5047 31.9536 29.0276 32.5051 27.5 32.5Z" fill="currentColor"></path>
  </symbol>
  <symbol xmlns="http://www.w3.org/2000/svg" viewBox="0 0 40 40" id="ic_time">
    <path d="M20 5C11.7188 5 5 11.7188 5 20C5 28.2812 11.7188 35 20 35C28.2812 35 35 28.2812 35 20C35 11.7188 28.2812 5 20 5Z" stroke="currentColor" stroke-width="2" stroke-miterlimit="10" fill="none"></path>
    <path d="M20 10V21.25H27.5" stroke="currentColor" stroke-width="2" stroke-linecap="round" stroke-linejoin="round" fill="none"></path>
  </symbol>
  <symbol xmlns="http://www.w3.org/2000/svg" viewBox="0 0 36 36" id="ic_youtube">
    <rect width="36" height="36" rx="18" fill="currentColor"></rect>
    <path fill-rule="evenodd" clip-rule="evenodd" d="M10.1363 24.3511C9.7833 24.2467 9.46118 24.0609 9.19716 23.8094C8.93314 23.5579 8.73496 23.2481 8.61935 22.9061C7.95873 21.1386 7.76299 13.7582 9.0353 12.3013C9.45875 11.8273 10.0566 11.5355 10.6991 11.4892C14.1123 11.1309 24.6578 11.1787 25.869 11.6086C26.2096 11.7165 26.5208 11.8982 26.7793 12.1402C27.0378 12.3822 27.2368 12.6781 27.3615 13.0059C28.0833 14.8331 28.1077 21.473 27.2636 23.2285C27.0397 23.6855 26.6648 24.0557 26.1993 24.2795C24.927 24.9005 11.8246 24.8885 10.1363 24.3511ZM15.5559 20.8878L21.6728 17.7828L15.5559 14.6539V20.8878Z" fill="white"></path>
  </symbol>
</svg>